<svg width="32.496857" height="32.496826" viewBox="0 0 32.4969 32.4968" fill="none" xmlns="http://www.w3.org/2000/svg" xmlns:xlink="http://www.w3.org/1999/xlink">
	<desc>
			Created with Pixso.
	</desc>
	<defs/>
	<path id="Vector" d="M3.24 0L29.24 0C31.04 0 32.49 1.45 32.49 3.24L32.49 29.24C32.49 31.04 31.04 32.49 29.24 32.49L3.24 32.49C1.45 32.49 0 31.04 0 29.24L0 3.24C0 1.45 1.45 0 3.24 0Z" fill="#010101" fill-opacity="1.000000" fill-rule="evenodd"/>
	<path id="Vector" d="M20.4 29.89C21.39 29.89 22.19 29.1 22.19 28.12C22.19 27.14 21.39 26.34 20.4 26.34L20.13 26.34C21.12 26.34 21.92 27.14 21.92 28.12C21.92 29.1 21.12 29.89 20.13 29.89L20.4 29.89Z" fill="#C1C9CF" fill-opacity="1.000000" fill-rule="evenodd"/>
	<path id="Vector" d="M20.11 26.34L19.84 26.34C18.85 26.34 18.05 27.14 18.05 28.12C18.05 29.1 18.85 29.89 19.84 29.89L20.11 29.89C19.12 29.89 18.32 29.1 18.32 28.12C18.32 27.14 19.12 26.34 20.11 26.34Z" fill="#C1C9CF" fill-opacity="1.000000" fill-rule="evenodd"/>
	<path id="Vector" d="M20.99 28.12C20.99 28.59 20.6 28.98 20.12 28.98C19.64 28.98 19.25 28.59 19.25 28.12C19.25 27.64 19.64 27.25 20.12 27.25C20.6 27.25 20.99 27.64 20.99 28.12Z" fill="#010101" fill-opacity="1.000000" fill-rule="evenodd"/>
	<path id="Vector" d="M6.49 25.54L6.49 26.44L7.55 26.44L7.55 29.87L8.6 29.87L8.6 26.46L9.46 26.46L9.76 25.54L6.49 25.54ZM15.13 25.54L15.13 26.44L16.18 26.44L16.18 29.87L17.24 29.87L17.24 26.46L18.1 26.46L18.39 25.54L15.13 25.54ZM9.95 26.05C9.95 25.77 10.18 25.54 10.47 25.54C10.75 25.54 10.98 25.77 10.98 26.05C10.98 26.33 10.75 26.56 10.47 26.56C10.18 26.56 9.95 26.33 9.95 26.05ZM9.95 26.92L10.98 26.92L10.98 29.87L9.95 29.87L9.95 26.92ZM11.42 25.54L11.42 29.87L12.45 29.87L12.45 28.75L12.77 28.46L13.78 29.89L14.88 29.89L13.43 27.8L14.73 26.53L13.48 26.53L12.45 27.56L12.45 25.54L11.42 25.54ZM22.53 25.54L22.53 29.87L23.56 29.87L23.56 28.75L23.88 28.46L24.89 29.89L25.99 29.89L24.55 27.8L25.85 26.53L24.59 26.53L23.56 27.56L23.56 25.54L22.53 25.54Z" fill="#FFFFFF" fill-opacity="1.000000" fill-rule="evenodd"/>
	<path id="Vector" d="M20.94 10.55C22.37 11.56 24.11 12.16 25.99 12.16L25.99 8.54C25.64 8.54 25.28 8.51 24.93 8.43L24.93 11.28C23.05 11.28 21.31 10.68 19.88 9.67L19.88 17.05C19.88 20.75 16.89 23.75 13.19 23.75C11.81 23.75 10.53 23.33 9.46 22.61C10.68 23.86 12.37 24.63 14.25 24.63C17.95 24.63 20.94 21.63 20.94 17.94L20.94 10.55L20.94 10.55ZM22.25 6.9C21.53 6.1 21.05 5.08 20.94 3.94L20.94 3.48L19.94 3.48C20.19 4.92 21.06 6.15 22.25 6.9ZM11.8 19.78C11.4 19.25 11.18 18.59 11.18 17.93C11.18 16.23 12.55 14.86 14.24 14.86C14.55 14.86 14.87 14.91 15.17 15.01L15.17 11.31C14.82 11.26 14.46 11.24 14.11 11.25L14.11 14.13C13.81 14.03 13.49 13.98 13.18 13.98C11.49 13.98 10.12 15.35 10.12 17.04C10.12 18.24 10.8 19.27 11.8 19.78Z" fill="#C1C9CF" fill-opacity="1.000000" fill-rule="evenodd"/>
	<path id="Vector" d="M19.89 9.67C21.31 10.68 23.05 11.28 24.93 11.28L24.93 8.43C23.88 8.21 22.95 7.66 22.25 6.9C21.06 6.15 20.19 4.92 19.94 3.48L17.3 3.48L17.3 17.94C17.3 19.62 15.93 20.99 14.24 20.99C13.25 20.99 12.36 20.51 11.8 19.78C10.8 19.27 10.12 18.24 10.12 17.04C10.12 15.35 11.49 13.98 13.18 13.98C13.5 13.98 13.82 14.03 14.11 14.13L14.11 11.25C10.48 11.32 7.56 14.29 7.56 17.94C7.56 19.76 8.28 21.41 9.46 22.61C10.53 23.33 11.81 23.75 13.19 23.75C16.89 23.75 19.89 20.75 19.89 17.05L19.89 9.67Z" fill="#FFFFFF" fill-opacity="1.000000" fill-rule="evenodd"/>
	<path id="Vector" d="M24.93 8.43L24.93 7.66C23.98 7.66 23.06 7.4 22.25 6.9C22.96 7.67 23.9 8.21 24.93 8.43ZM19.94 3.48C19.92 3.34 19.9 3.2 19.88 3.06L19.88 2.59L16.24 2.59L16.24 17.05C16.24 18.74 14.87 20.11 13.18 20.11C12.68 20.11 12.22 19.99 11.8 19.78C12.36 20.51 13.24 20.99 14.24 20.99C15.93 20.99 17.3 19.62 17.3 17.94L17.3 3.48L19.94 3.48ZM14.11 11.25L14.11 10.43C13.8 10.38 13.5 10.36 13.19 10.36C9.49 10.36 6.49 13.36 6.49 17.05C6.49 19.37 7.67 21.41 9.46 22.61C8.28 21.41 7.55 19.76 7.55 17.94C7.55 14.29 10.48 11.32 14.11 11.25Z" fill="#C1C9CF" fill-opacity="1.000000" fill-rule="evenodd"/>
	<path id="Vector" d="M20.13 29.89C21.12 29.89 21.92 29.1 21.92 28.12C21.92 27.14 21.12 26.34 20.13 26.34L20.11 26.34C19.12 26.34 18.32 27.14 18.32 28.12C18.32 29.1 19.12 29.89 20.11 29.89L20.13 29.89ZM19.25 28.12C19.25 27.64 19.64 27.25 20.12 27.25C20.6 27.25 20.99 27.64 20.99 28.12C20.99 28.59 20.6 28.98 20.12 28.98C19.64 28.98 19.25 28.59 19.25 28.12Z" fill="#FFFFFF" fill-opacity="1.000000" fill-rule="evenodd"/>
</svg>
